<svg width="63" height="54" viewBox="0 0 63 54" fill="none" xmlns="http://www.w3.org/2000/svg">
<path d="M6.77102 43.9583H5.27102V45.4583V50.875V52.375H6.77102H58.2294H59.7294V50.875V45.4583V43.9583H58.2294H6.77102ZM15.1949 5.80007L25.4296 23.5253L14.5807 26.4285L9.83442 22.7182L9.24431 22.2569L8.521 22.4515L4.59392 23.5077L2.70877 24.0148L3.68419 25.7058L10.6988 37.8662L11.2738 38.863L12.3855 38.5658L57.2626 26.5679L57.2738 26.5649L57.2849 26.5617C60.2523 25.7191 62.0032 22.6962 61.2239 19.7275C60.4438 16.7556 57.3687 14.9758 54.3975 15.7897C54.3957 15.7902 54.3938 15.7907 54.392 15.7912L40.8235 19.4197L22.7436 2.57139L22.1381 2.00707L21.3378 2.21854L16.1107 3.59979L14.2139 4.10102L15.1949 5.80007Z" stroke="black" stroke-opacity="0.44" stroke-width="3"/>
</svg>