<svg width="58" height="58" viewBox="0 0 58 58" fill="none" xmlns="http://www.w3.org/2000/svg">
<path d="M44.9166 28.7583V44.9167H26.5833H25.5833V45.9167V50.75V51.75H26.5833H45.9166C49.1273 51.75 51.75 49.1273 51.75 45.9167V43.5333C53.1929 42.5561 54.1666 40.9141 54.1666 39.005V33.4467C54.1666 31.5733 53.1863 29.9363 51.7439 28.9626C51.4534 15.4316 40.8199 6.25 29 6.25C17.2952 6.25 6.53332 15.2527 6.25548 29.1259C4.78442 30.1725 3.83331 31.8862 3.83331 33.8333V38.6667C3.83331 41.8773 6.45603 44.5 9.66665 44.5H12.0833H13.0833V43.5V28.7583C13.0833 19.9581 20.1998 12.8417 29 12.8417C37.8002 12.8417 44.9166 19.9581 44.9166 28.7583Z" stroke="white" stroke-opacity="0.6" stroke-width="2"/>
<path d="M21.75 34.8333C23.637 34.8333 25.1666 33.3036 25.1666 31.4167C25.1666 29.5297 23.637 28 21.75 28C19.863 28 18.3333 29.5297 18.3333 31.4167C18.3333 33.3036 19.863 34.8333 21.75 34.8333Z" stroke="white" stroke-opacity="0.6" stroke-width="2"/>
<path d="M36.25 34.8333C38.137 34.8333 39.6666 33.3036 39.6666 31.4167C39.6666 29.5297 38.137 28 36.25 28C34.363 28 32.8333 29.5297 32.8333 31.4167C32.8333 33.3036 34.363 34.8333 36.25 34.8333Z" stroke="white" stroke-opacity="0.6" stroke-width="2"/>
<path d="M43.4903 26.2748L44.6843 26.2863L44.486 25.1088C43.2465 17.7495 36.8445 12.119 29.1207 12.119C28.2069 12.119 27.2843 12.2077 26.3685 12.3806L25.8811 11.402L25.6576 12.5321C19.0283 14.1062 12.9769 20.0813 13.5504 28.7724L13.6418 30.1575L14.9267 29.6321C20.4436 27.3762 24.7635 22.7838 26.6419 17.0767C30.2661 22.5685 36.4452 26.2071 43.4903 26.2748Z" stroke="white" stroke-opacity="0.6" stroke-width="2"/>
</svg>